<svg xmlns="http://www.w3.org/2000/svg" viewBox="0 0 512 512" width="100%" height="100%">
  <!-- Background Circle: Deep Olive Green (#4E5D36) -->
  <circle cx="256" cy="256" r="236" fill="#4E5D36" stroke="#D4A359" stroke-width="18" />
  
  <!-- Organic Soil Foundation -->
  <path d="M 136 345 C 180 325 332 325 376 345 C 330 380 180 380 136 345 Z" fill="#D4A359" opacity="0.95" />

  <!-- Main Sprout Stem & Leaf Elements -->
  <!-- Left Sprout Leaf -->
  <path d="M 256 250 C 170 240 145 165 145 165 C 145 165 215 160 256 250 Z" fill="#FAF7F2" stroke="#FAF7F2" stroke-width="8" stroke-linejoin="round" />

  <!-- Right Sprout Leaf -->
  <path d="M 256 205 C 342 195 367 120 367 120 C 367 120 297 115 256 205 Z" fill="#D4A359" stroke="#D4A359" stroke-width="8" stroke-linejoin="round" />

  <!-- Center Growth Stem -->
  <path d="M 256 345 L 256 160" stroke="#FAF7F2" stroke-width="24" stroke-linecap="round" />

  <!-- Top Emerging Leaf Tip -->
  <path d="M 256 160 C 235 125 248 85 256 75 C 264 85 277 125 256 160 Z" fill="#F4E8D1" />

  <!-- Sun Rays / Quality Sparkle Accent -->
  <circle cx="390" cy="120" r="14" fill="#D4A359" />
  <circle cx="122" cy="130" r="10" fill="#FAF7F2" opacity="0.8" />
</svg>